<?xml version="1.0" encoding="utf-8"?>
<!-- Generator: Adobe Illustrator 25.0.1, SVG Export Plug-In . SVG Version: 6.00 Build 0)  -->
<svg version="1.1" id="Capa_1" xmlns="http://www.w3.org/2000/svg" xmlns:xlink="http://www.w3.org/1999/xlink" x="0px" y="0px"
	 viewBox="0 0 110.5 32" style="enable-background:new 0 0 110.5 32;" xml:space="preserve">
<style type="text/css">
	.st0{fill-rule:evenodd;clip-rule:evenodd;fill:#E53F40;}
	.st1{fill-rule:evenodd;clip-rule:evenodd;fill:#006FB3;}
	.st2{fill:#8A8A8A;}
	.st3{fill:#8A8A8A;stroke:#8A8A8A;stroke-width:0.25;stroke-miterlimit:10;}
</style>
<desc>Created with Sketch.</desc>
<g id="Page-1">
	<g>
		<g id="Clip-2">
		</g>
		<polygon id="Fill-10" class="st0" points="37.5,4.1 75,4.1 75,0 37.5,0 		"/>
		<polygon id="Fill-11" class="st1" points="0,4.1 37.5,4.1 37.5,0 0,0 		"/>
	</g>
</g>
<g>
	<path class="st2" d="M5.4,16l-0.1-5.1h0c-0.1,0.6-0.2,1.1-0.3,1.4L4.1,16H2.3l-0.8-3.6c-0.1-0.3-0.2-0.8-0.3-1.4H1.2l-0.1,5.1H0
		l0.2-6.1h2.1c0,0,0.7,3.1,1,5l0,0c0.4-2,1.2-5,1.2-5h2l0.2,6.1L5.4,16L5.4,16z"/>
	<path class="st2" d="M8.2,16v-3.6l-0.5-0.1v-0.8h1.7v4.4L8.2,16L8.2,16z M8.1,9.7h1.2v1.1H8.1V9.7z"/>
	<path class="st2" d="M13.1,16v-2.6c0-0.7-0.3-1-0.8-1c-0.3,0-0.5,0.1-0.8,0.3v3.4h-1.2v-4.4h0.8l0.2,0.5c0.3-0.3,0.8-0.6,1.4-0.6
		c1.1,0,1.6,0.7,1.6,1.8v2.7L13.1,16L13.1,16z"/>
	<path class="st2" d="M15.6,16v-3.6l-0.5-0.1v-0.8h1.7v4.4L15.6,16L15.6,16z M15.6,9.7h1.2v1.1h-1.2V9.7z"/>
	<path class="st2" d="M18.9,12.7c0,0.7,1.9,0.5,1.9,1.9c0,0.8-0.6,1.4-1.7,1.4c-0.5,0-1-0.1-1.3-0.3l0.3-0.8c0.2,0.1,0.6,0.3,1,0.3
		c0.4,0,0.6-0.2,0.6-0.5c0-0.8-1.9-0.5-1.9-2.1c0-0.6,0.5-1.2,1.7-1.2c0.5,0,1,0.1,1.2,0.2l-0.3,0.9c-0.3-0.1-0.7-0.2-1.1-0.2
		C19.1,12.3,18.9,12.4,18.9,12.7z"/>
	<path class="st2" d="M23.4,16.1c-0.8,0-1.3-0.3-1.3-1.5v-2.2h-0.7v-0.8h0.7v-0.8l1.2-0.4v1.2h1.2v0.8h-1.2v2.2
		c0,0.3,0.1,0.5,0.5,0.5c0.3,0,0.5-0.1,0.7-0.1l0.2,0.9C24.3,15.9,23.9,16.1,23.4,16.1z"/>
	<path class="st2" d="M26.1,14.1c0,0.7,0.4,1.1,1.2,1.1c0.5,0,0.9-0.1,1.3-0.3l0.2,0.8c-0.3,0.2-1,0.4-1.6,0.4
		c-1.4,0-2.2-0.8-2.2-2.3c0-1.4,0.7-2.3,2.1-2.3c1.3,0,1.9,1,1.9,2.1v0.5C28.9,14.1,26.1,14.1,26.1,14.1z M27,12.3
		c-0.6,0-0.8,0.5-0.8,1h1.6C27.7,12.8,27.6,12.3,27,12.3z"/>
	<path class="st2" d="M32.2,12.5c-0.1-0.1-0.3-0.1-0.5-0.1c-0.3,0-0.6,0.1-0.8,0.3v3.2h-1.2v-4.4h0.8l0.1,0.6l0,0
		c0.1-0.3,0.5-0.7,1-0.7c0.2,0,0.4,0.1,0.5,0.1L32.2,12.5z"/>
	<path class="st2" d="M33.3,16v-3.6l-0.5-0.1v-0.8h1.7v4.4L33.3,16L33.3,16z M33.3,9.7h1.2v1.1h-1.2V9.7z"/>
	<path class="st2" d="M39.5,13.7c0,1.5-0.8,2.3-2.1,2.3c-1.3,0-2.1-0.8-2.1-2.3c0-1.3,0.8-2.3,2.1-2.3
		C38.8,11.5,39.5,12.4,39.5,13.7z M38.3,13.7c0-1.1-0.3-1.4-0.9-1.4s-0.8,0.4-0.8,1.4s0.3,1.4,0.8,1.4
		C38.1,15.2,38.3,14.8,38.3,13.7z"/>
	<path class="st2" d="M45.3,11.9c-0.1-0.3-0.1-0.5-0.1-0.8V9.7h1.2V16h-1l-0.1-0.5c-0.2,0.3-0.6,0.5-1.2,0.5c-1,0-1.8-0.8-1.8-2.3
		c0-1.4,0.8-2.3,1.9-2.3C44.7,11.5,45,11.6,45.3,11.9z M45.1,12.6c-0.2-0.1-0.5-0.2-0.8-0.2c-0.5,0-0.9,0.4-0.9,1.4
		c0,1,0.3,1.4,0.9,1.4c0.3,0,0.6-0.1,0.8-0.4V12.6z"/>
	<path class="st2" d="M48.4,14.1c0,0.7,0.4,1.1,1.2,1.1c0.5,0,0.9-0.1,1.3-0.3l0.2,0.8c-0.4,0.1-1,0.4-1.7,0.4
		c-1.4,0-2.2-0.8-2.2-2.3c0-1.4,0.7-2.3,2.1-2.3c1.3,0,1.9,1,1.9,2.1v0.5C51.1,14.1,48.4,14.1,48.4,14.1z M49.2,12.3
		c-0.6,0-0.8,0.5-0.8,1h1.6C50,12.8,49.9,12.3,49.2,12.3z"/>
	<path class="st2" d="M55.4,16.4c-0.8,0-1.5-0.3-2-0.6l0.5-1c0.3,0.3,1,0.6,1.6,0.6c0.5,0,1-0.3,1-0.8c0-1.3-2.8-0.6-2.8-2.8
		c0-0.9,0.8-1.6,2.1-1.6c0.7,0,1.3,0.1,1.8,0.4l-0.4,1c-0.3-0.2-0.9-0.3-1.4-0.3s-0.9,0.2-0.9,0.6c0,1.1,2.8,0.7,2.8,2.7
		C57.6,15.5,56.8,16.4,55.4,16.4z"/>
	<path class="st2" d="M61.3,16.3L61,15.8c-0.2,0.3-0.7,0.6-1.3,0.6c-0.9,0-1.5-0.5-1.5-1.4c0-0.8,0.6-1.3,1.6-1.3h1v-0.2
		c0-0.5-0.3-0.8-0.8-0.8c-0.5,0-1,0.1-1.3,0.3l-0.3-0.8c0.4-0.2,1-0.3,1.7-0.3c1.2,0,1.8,0.5,1.8,1.7v2.8L61.3,16.3L61.3,16.3z
		 M60.9,14.3h-0.8c-0.5,0-0.7,0.2-0.7,0.5c0,0.4,0.2,0.6,0.7,0.6c0.3,0,0.5-0.1,0.8-0.3V14.3z"/>
	<path class="st2" d="M63,15.1V10h1.2v5c0,0.3,0.2,0.4,0.7,0.4v0.8c0,0-0.3,0.1-0.6,0.1C63.4,16.4,63,15.9,63,15.1z"/>
	<path class="st2" d="M68.8,16.3l-0.2-0.5c-0.2,0.3-0.7,0.6-1.4,0.6c-1.1,0-1.6-0.6-1.6-1.9v-2.7h1.2v2.7c0,0.7,0.3,0.9,0.8,0.9
		c0.3,0,0.6-0.1,0.8-0.3v-3.4h1.2v4.4h-0.8V16.3z"/>
	<path class="st2" d="M73.4,12.2c-0.1-0.3-0.1-0.5-0.1-0.8v-1.3h1.2v6.2h-1l-0.1-0.5c-0.2,0.3-0.6,0.5-1.2,0.5c-1,0-1.8-0.8-1.8-2.3
		c0-1.4,0.8-2.3,1.9-2.3C72.8,11.8,73.2,11.9,73.4,12.2z M73.3,12.9c-0.2-0.1-0.5-0.2-0.8-0.2c-0.5,0-0.9,0.4-0.9,1.4
		c0,1,0.3,1.4,0.9,1.4c0.3,0,0.6-0.1,0.8-0.4V12.9z"/>
</g>
<line class="st3" x1="78.2" y1="0" x2="78.1" y2="19.8"/>
<g id="Page-1_1_">
	<g>
		<g id="Clip-2_1_">
		</g>
		<polygon id="Fill-10_1_" class="st0" points="96.2,4.1 110.5,4.1 110.5,0 96.2,0 		"/>
		<polygon id="Fill-11_1_" class="st1" points="81.9,4.1 96.2,4.1 96.2,0 81.9,0 		"/>
	</g>
</g>
<g>
	<path class="st2" d="M88.6,13.7c0,1.6-0.9,3-2.9,3c-2,0-2.9-1.4-2.9-3V9h1.5v4.6c0,1.1,0.4,1.8,1.4,1.8c0.9,0,1.4-0.7,1.4-1.8V9
		h1.5V13.7z"/>
	<path class="st2" d="M96.1,16c-1,0.5-1.8,0.7-2.8,0.7c-2.3,0-3.4-1.6-3.4-4c0-2.3,1.2-3.9,3.5-3.9c1.2,0,1.9,0.3,2.5,0.7l-0.6,1.1
		c-0.4-0.3-1.1-0.5-1.9-0.5c-1.4,0-2,1-2,2.5c0,1.8,0.7,2.8,2,2.8c0.5,0,0.9-0.1,1.3-0.2v-1.4h-1l-0.1-1.1h2.5V16z"/>
	<path class="st2" d="M100.4,16.7c-2.1,0-3.3-1.4-3.3-4c0-2.4,1.1-3.9,3.3-3.9c1,0,2,0.2,2.6,0.6l-0.6,1.2c-0.4-0.3-1.1-0.5-1.9-0.5
		c-1.3,0-1.9,0.9-1.9,2.6c0,1.8,0.6,2.7,1.9,2.7c0.7,0,1.5-0.3,2-0.7l0.5,1.2C102.3,16.4,101.4,16.7,100.4,16.7z"/>
	<path class="st2" d="M106.9,16.7c-2.1,0-3.3-1.4-3.3-4c0-2.4,1.1-3.9,3.3-3.9c1,0,2,0.2,2.6,0.6l-0.6,1.2c-0.4-0.3-1.1-0.5-1.9-0.5
		c-1.3,0-1.9,0.9-1.9,2.6c0,1.8,0.6,2.7,1.9,2.7c0.7,0,1.5-0.3,2-0.7l0.5,1.2C108.8,16.4,107.9,16.7,106.9,16.7z"/>
</g>
<desc>Created with Sketch.</desc>
</svg>
